<svg width="291" height="58" viewBox="0 0 291 58" fill="none" xmlns="http://www.w3.org/2000/svg">
<path d="M7.41706 17.2666C8.42468 16.5431 9.50904 16.2602 10.6702 16.418C11.8619 16.5725 12.8517 17.1657 13.6396 18.1976L15.4219 20.6111L16.8629 17.9553C17.4893 16.8383 18.3576 16.1138 19.4678 15.7818C20.6054 15.416 21.7296 15.5157 22.8402 16.0809C23.9234 16.6799 24.6326 17.5498 24.9678 18.6906C25.3304 19.7976 25.2307 20.9217 24.6687 22.063L23.7846 23.8256L25.7587 23.6203C26.9894 23.5543 28.0625 23.9068 28.978 24.6779C29.8903 25.4184 30.4117 26.4161 30.5421 27.671C30.6114 28.9322 30.2604 30.0206 29.4893 30.9361C28.7457 31.8178 27.7464 32.3239 26.4915 32.4543L24.3289 32.6328L25.6264 34.4006C26.35 35.4082 26.6191 36.5094 26.434 37.7043C26.2762 38.8654 25.7105 39.8215 24.7366 40.5724C23.6984 41.2991 22.5987 41.5836 21.4376 41.4258C20.2733 41.2375 19.3004 40.658 18.5189 39.6874L16.7317 37.2279L15.2956 39.9296C14.6966 41.0129 13.8283 41.7374 12.6907 42.1031C11.5805 42.4351 10.4547 42.3201 9.31348 41.7581C8.23025 41.1592 7.50735 40.3062 7.14476 39.1991C6.80959 38.0583 6.92301 36.9173 7.485 35.776L8.3739 34.0594L6.39496 34.2187C5.1643 34.2848 4.09281 33.9476 3.1805 33.2071C2.26501 32.436 1.74204 31.423 1.61158 30.1681C1.54551 28.9374 1.88273 27.8659 2.62321 26.9536C3.39431 26.0381 4.4073 25.5152 5.66221 25.3847L7.77889 25.2111L6.52724 23.4385C5.80373 22.4309 5.52084 21.3465 5.67857 20.1854C5.86692 19.0211 6.44641 18.0482 7.41706 17.2666Z" fill="#EA353C"/>
<path d="M65.2801 15.2102C66.2335 14.2335 69.8847 13.1637 73.5824 13.3032C76.1638 13.3962 80.6289 14.2335 82.6522 18.5125C84.5126 22.466 82.1173 26.0939 80.9778 27.4893C84.0243 28.8846 85.6289 31.4195 86.0708 34.0242C86.4661 36.2335 86.5824 42.094 78.2336 44.6056C75.1173 45.5358 72.0475 45.5823 71.0708 45.1637C70.4196 45.7684 69.5591 46.094 68.6754 46.1172C66.6289 46.1637 64.9312 44.5358 64.8847 42.4893L64.3266 18.7218C64.001 17.4195 64.3963 16.1172 65.2801 15.2102ZM75.6987 21.6056C75.5359 20.4428 72.0708 20.7916 71.8149 20.8381L71.9312 25.6056C72.3498 25.3032 75.908 22.8846 75.6987 21.6056ZM78.8615 35.2567C78.7452 33.0242 73.9545 33.6986 72.1173 33.9079L72.2103 38.0474C73.9312 37.9079 79.0243 37.6521 78.8615 35.2567ZM97.4213 16.2567C98.0957 14.8614 99.5376 14.0474 101.072 14.1637C102.607 14.3032 103.91 15.3497 104.352 16.8381L111.631 41.9777C112.189 43.9544 111.072 46.001 109.096 46.5823C107.119 47.1405 105.049 46.0242 104.491 44.0475L103.421 40.3498L94.1655 40.1172L91.5608 45.5358C90.6771 47.373 88.4445 48.1637 86.584 47.2568C84.7468 46.373 83.9794 44.1637 84.8631 42.3033L97.4213 16.2567ZM99.9097 28.2335L97.7236 32.7684L101.235 32.8614L99.9097 28.2335ZM112.859 15.2102C113.813 14.2335 117.464 13.1637 121.162 13.3032C123.743 13.3962 128.208 14.2335 130.231 18.5125C132.092 22.466 129.696 26.0939 128.557 27.4893C131.603 28.8846 133.208 31.4195 133.65 34.0242C134.045 36.2335 134.162 42.094 125.813 44.6056C122.696 45.5358 119.627 45.5823 118.65 45.1637C117.999 45.7684 117.138 46.094 116.255 46.1172C114.208 46.1637 112.51 44.5358 112.464 42.4893L111.906 18.7218C111.58 17.4195 111.975 16.1172 112.859 15.2102ZM123.278 21.6056C123.115 20.4428 119.65 20.7916 119.394 20.8381L119.51 25.6056C119.929 25.3032 123.487 22.8846 123.278 21.6056ZM126.441 35.2567C126.324 33.0242 121.534 33.6986 119.696 33.9079L119.789 38.0474C121.51 37.9079 126.603 37.6521 126.441 35.2567ZM147.76 15.28C148.876 13.5358 151.178 13.0474 152.899 14.1172C154.644 15.2102 155.155 17.4893 154.062 19.2335L146.737 30.9312C146.853 34.6753 146.946 38.3498 146.271 43.2568C145.992 45.3033 144.109 46.7219 142.085 46.4428C140.039 46.1637 138.62 44.28 138.899 42.2335C139.527 37.7916 139.411 34.6288 139.295 30.7451L132.016 19.373C130.923 17.6288 131.411 15.3497 133.155 14.2335C134.876 13.1172 137.178 13.6288 138.295 15.3497L143.062 22.8149L147.76 15.28ZM169.756 14.0474C171.803 13.9776 173.547 15.559 173.617 17.6288C173.686 19.6753 172.082 21.3963 170.035 21.466C170.035 21.466 165.965 21.6521 162.57 21.8614C162.477 23.2335 162.384 25.0242 162.337 27.1637L165.035 26.7916C167.058 26.5358 168.942 27.9544 169.198 30.0009C169.477 32.0474 168.035 33.9079 166.012 34.187L162.384 34.6521C162.477 36.8847 162.663 38.5358 162.942 39.6056C163.151 40.3963 163.617 40.5358 163.826 41.28C164.151 42.6056 163.803 44.0475 162.756 45.0475C161.268 46.4661 158.919 46.4196 157.5 44.9312C156.314 43.6986 154.756 41.5823 154.849 29.7684C154.896 25.3265 155.128 21.28 155.221 19.7683C154.849 18.8381 154.919 17.7683 155.337 16.8381C155.849 15.7683 156.872 14.9311 158.268 14.7683C162.082 14.3032 169.756 14.0474 169.756 14.0474ZM178.318 13.8846C180.806 14.1869 181.76 15.6986 181.457 18.0939C181.271 19.5358 180.457 26.0939 180.643 32.4195C180.806 37.7219 181.388 38.8847 185.295 38.1172C187.318 37.7219 189.271 39.0242 189.667 41.0242C190.062 43.0475 188.76 45.0009 186.736 45.3963C176.388 47.4661 174.132 40.3498 173.667 37.5591C172.202 28.9312 174.109 17.0242 174.109 17.0242C174.411 15.0009 176.271 13.6288 178.318 13.8846ZM199.927 14.466C205.02 14.2102 211.625 18.9776 211.904 29.0707C212.113 37.0009 206.625 44.28 198.974 44.1405C197.602 44.1172 188.044 43.4893 188.416 30.0474C188.695 20.6753 193.718 14.7683 199.927 14.466ZM204.462 29.28C204.323 24.5125 202.346 22.0474 200.323 22.0009C198.206 21.9777 196.02 24.6521 195.857 30.2567C195.718 35.0009 197.416 36.8614 199.323 36.8381C201.764 36.7684 204.578 33.5823 204.462 29.28ZM217.049 14.2335C219.095 14.1869 220.793 15.8381 220.839 17.8846L220.909 21.8149C224.421 18.5823 228.77 15.9079 229.374 15.5358C231.049 14.5358 233.374 14.9776 234.467 16.8149C235.537 18.5823 234.956 20.8614 233.188 21.9311C229.863 23.9311 223.56 27.6288 223.607 30.5823C223.63 33.28 229.607 35.3265 232.467 36.6288C234.351 37.4893 235.281 39.6056 234.491 41.4893C233.7 43.3963 231.514 44.3033 229.63 43.5126C228.095 42.8614 224.328 41.094 221.281 38.8847L221.351 42.2102C221.374 44.2568 219.746 45.9544 217.7 46.001C215.653 46.0475 213.956 44.4196 213.909 42.3498L213.398 18.0242C213.351 15.9776 214.979 14.28 217.049 14.2335ZM241.096 13.559C243.143 13.6986 244.701 15.466 244.561 17.5125C244.096 23.3265 243.631 35.5126 244.771 40.2568C244.934 40.9544 245.375 41.1405 245.585 42.0009C245.934 43.3498 245.631 44.6986 244.561 45.7451C243.073 47.1637 240.724 47.094 239.306 45.6289C238.189 44.4661 236.585 42.5591 236.608 29.5358C236.631 23.5125 237.143 17.0242 237.143 17.0242C237.282 14.9776 239.05 13.4195 241.096 13.559ZM265.988 13.8148C268.035 13.6986 269.802 15.28 269.918 17.3265C270.035 19.373 268.453 21.1404 266.407 21.2567L262.151 21.4893C262.058 27.9777 261.43 37.1405 262.383 40.9544C262.895 42.9312 262.221 45.0242 260.29 45.7916C259.151 46.2335 255.221 47.187 254.523 39.5126C253.988 33.6753 254.779 27.7684 254.709 21.9079L249.895 22.187C247.849 22.3032 246.081 20.7218 245.965 18.6753C245.849 16.6288 247.43 14.8614 249.476 14.7451L265.988 13.8148ZM276.178 16.2567C276.852 14.8614 278.294 14.0474 279.829 14.1637C281.364 14.3032 282.666 15.3497 283.108 16.8381L290.387 41.9777C290.945 43.9544 289.829 46.001 287.852 46.5823C285.876 47.1405 283.806 46.0242 283.248 44.0475L282.178 40.3498L272.922 40.1172L270.317 45.5358C269.434 47.373 267.201 48.1637 265.341 47.2568C263.504 46.373 262.736 44.1637 263.62 42.3033L276.178 16.2567ZM278.666 28.2335L276.48 32.7684L279.992 32.8614L278.666 28.2335Z" fill="#EA353C"/>
</svg>
