<svg width="157" height="24" viewBox="0 0 157 24" fill="none" xmlns="http://www.w3.org/2000/svg">
<path d="M27.1325 18.9225L22.7025 23.6725C22.6066 23.7757 22.4906 23.858 22.3616 23.9144C22.2325 23.9707 22.0933 23.9999 21.9525 24H0.952455C0.852296 23.9999 0.754326 23.9707 0.670543 23.9158C0.586759 23.8609 0.520798 23.7828 0.480736 23.691C0.440674 23.5992 0.428249 23.4977 0.444984 23.3989C0.461718 23.3002 0.506885 23.2085 0.574955 23.135L4.99995 18.385C5.09577 18.2818 5.21181 18.1995 5.34085 18.1431C5.46989 18.0868 5.60915 18.0576 5.74995 18.0575H26.75C26.851 18.0554 26.9505 18.0833 27.0358 18.1376C27.121 18.1918 27.1884 18.2701 27.2293 18.3626C27.2701 18.4551 27.2828 18.5576 27.2655 18.6572C27.2483 18.7568 27.202 18.8491 27.1325 18.9225ZM22.7025 9.35499C22.6063 9.25228 22.4902 9.17027 22.3612 9.11396C22.2322 9.05765 22.0932 9.02823 21.9525 9.02749H0.952455C0.852296 9.02754 0.754326 9.05681 0.670543 9.11169C0.586759 9.16657 0.520798 9.2447 0.480736 9.3365C0.440674 9.42829 0.428249 9.52978 0.444984 9.62853C0.461718 9.72728 0.506885 9.81901 0.574955 9.89249L4.99995 14.645C5.09614 14.7477 5.21226 14.8297 5.34121 14.886C5.47016 14.9423 5.60925 14.9717 5.74995 14.9725H26.75C26.8499 14.9719 26.9475 14.9423 27.0309 14.8873C27.1143 14.8322 27.1799 14.754 27.2197 14.6623C27.2594 14.5706 27.2716 14.4694 27.2548 14.3708C27.238 14.2723 27.1929 14.1808 27.125 14.1075L22.7025 9.35499ZM0.952455 5.94249H21.9525C22.0933 5.94237 22.2325 5.91323 22.3616 5.85688C22.4906 5.80053 22.6067 5.71819 22.7025 5.61499L27.1325 0.864988C27.1844 0.810091 27.2235 0.7444 27.2471 0.67261C27.2707 0.60082 27.2782 0.524706 27.2689 0.449707C27.2597 0.374708 27.234 0.302677 27.1937 0.238764C27.1533 0.174851 27.0994 0.120634 27.0357 0.0799881C26.9504 0.0257267 26.851 -0.0021069 26.75 -1.19353e-05H5.74995C5.60915 0.000136275 5.46989 0.0292927 5.34085 0.085639C5.21181 0.141985 5.09577 0.224313 4.99995 0.327488L0.574955 5.07749C0.506885 5.15096 0.461718 5.24269 0.444984 5.34144C0.428249 5.44019 0.440674 5.54168 0.480736 5.63348C0.520798 5.72528 0.586759 5.8034 0.670543 5.85829C0.754326 5.91317 0.852296 5.94243 0.952455 5.94249Z" fill="white"/>
<path d="M47.985 10.4003H36.75V6.70029H50.905V3.00029H36.7125C36.2276 2.99759 35.7469 3.09045 35.2978 3.27356C34.8488 3.45667 34.4402 3.72645 34.0955 4.06749C33.7507 4.40853 33.4765 4.81414 33.2886 5.26116C33.1006 5.70819 33.0026 6.18786 33 6.67279V10.4228C33.0019 10.9081 33.0995 11.3883 33.2872 11.8359C33.4748 12.2835 33.7489 12.6897 34.0937 13.0313C34.4385 13.3729 34.8473 13.6431 35.2967 13.8265C35.746 14.01 36.2272 14.103 36.7125 14.1003H47.9625V17.8003H33.2675V21.5003H47.985C48.7153 21.5044 49.4305 21.2917 50.0399 20.8893C50.6494 20.4868 51.1257 19.9126 51.4087 19.2393C51.5968 18.7923 51.6949 18.3127 51.6975 17.8278V14.0778C51.6956 13.5924 51.598 13.1122 51.4103 12.6647C51.2226 12.2171 50.9485 11.8109 50.6037 11.4693C50.2589 11.1278 49.8501 10.8575 49.4008 10.6741C48.9514 10.4907 48.4703 10.3976 47.985 10.4003ZM69.75 3.00029H58.4725C57.7409 2.99446 57.0241 3.20603 56.413 3.60817C55.8018 4.0103 55.3239 4.58488 55.0397 5.25904C54.851 5.70661 54.7525 6.18705 54.75 6.67279V17.8278C54.7525 18.3135 54.851 18.794 55.0397 19.2418C55.3238 19.916 55.8018 20.4905 56.4129 20.8926C57.0241 21.2947 57.7409 21.5062 58.4725 21.5003H69.75C70.2349 21.503 70.7156 21.4101 71.1647 21.227C71.6137 21.0439 72.0223 20.7741 72.367 20.4331C72.7118 20.092 72.986 19.6864 73.1739 19.2394C73.3619 18.7924 73.4599 18.3127 73.4625 17.8278V6.67279C73.46 6.18788 73.3619 5.70821 73.1739 5.26123C72.9859 4.81425 72.7116 4.4087 72.3668 4.06779C72.0221 3.72664 71.6136 3.45676 71.1646 3.27359C70.7156 3.09042 70.2349 2.99755 69.75 3.00029ZM69.7225 17.8003H58.5V6.70029H69.7175L69.7225 17.8003ZM109.25 3.00029H98.25C97.7651 2.99759 97.2844 3.09045 96.8353 3.27356C96.3863 3.45667 95.9777 3.72645 95.633 4.06749C95.2882 4.40853 95.014 4.81414 94.8261 5.26116C94.6381 5.70819 94.5401 6.18786 94.5375 6.67279V21.5003H98.2875V15.4228H109.238V21.5003H112.988V6.67279C112.985 6.18572 112.886 5.70395 112.697 5.25526C112.507 4.80656 112.231 4.3998 111.883 4.05842C111.536 3.71704 111.124 3.44779 110.672 3.26618C110.22 3.08458 109.737 2.99421 109.25 3.00029ZM109.223 11.7228H98.2725V6.70029H109.223V11.7228ZM153.038 3.00029H142.038C141.553 2.99759 141.072 3.09045 140.623 3.27356C140.174 3.45667 139.765 3.72645 139.42 4.06749C139.076 4.40853 138.802 4.81414 138.614 5.26116C138.426 5.70819 138.328 6.18786 138.325 6.67279V21.5003H142.075V15.4228H153V21.5003H156.75V6.67279C156.747 6.18788 156.649 5.70821 156.461 5.26123C156.273 4.81425 155.999 4.4087 155.654 4.06779C154.958 3.37905 154.017 2.99507 153.038 3.00029ZM153 11.7228H142.05V6.70029H153V11.7228ZM131.25 17.8003H129.75L124.387 4.55029C124.204 4.09311 123.888 3.70128 123.48 3.42509C123.071 3.14891 122.59 3.00098 122.098 3.00029H118.77C118.283 2.99766 117.806 3.13962 117.4 3.4082C116.993 3.67678 116.676 4.05989 116.487 4.50904C116.362 4.80714 116.297 5.12696 116.295 5.45029V21.5003H120.045V6.70029H121.545L126.905 19.9503C127.092 20.4066 127.41 20.7969 127.82 21.0712C128.23 21.3456 128.712 21.4915 129.205 21.4903H132.533C132.856 21.492 133.176 21.43 133.476 21.3077C133.775 21.1855 134.048 21.0054 134.277 20.7778C134.742 20.3183 135.004 19.6933 135.008 19.0403V3.00029H131.25V17.8003ZM80.525 3.00029H76.775V17.8278C76.7775 18.3137 76.876 18.7944 77.0648 19.2422C77.2535 19.69 77.5289 20.0962 77.875 20.4373C78.2211 20.7784 78.6311 21.0479 79.0816 21.2304C79.532 21.4128 80.014 21.5045 80.5 21.5003H91.75V17.8003H80.525V3.00029Z" fill="white"/>
</svg>
