<svg width="32" height="33" viewBox="0 0 32 33" fill="none" xmlns="http://www.w3.org/2000/svg">
<g clip-path="url(#clip0_1_95)">
<path d="M31.2446 16.1772V16.1158C31.2139 7.41995 24.2094 0.323242 15.6365 0.323242C7.06356 0.323242 0.0283203 7.41995 0.0283203 16.1772C0.0283203 24.9356 7.03173 32.018 15.6365 32.018C19.5849 32.0207 23.3823 30.501 26.2387 27.775C26.52 27.5179 26.6878 27.1597 26.7049 26.779C26.7221 26.3983 26.5874 26.0264 26.3304 25.745C26.0733 25.4637 25.7151 25.296 25.3344 25.2788C24.9537 25.2616 24.5818 25.3964 24.3005 25.6534L24.2697 25.6841C23.0373 26.8558 21.5808 27.7663 19.9876 28.361C18.3945 28.9557 16.6977 29.2224 14.9989 29.145C13.3002 29.0676 11.6346 28.6478 10.1022 27.9106C8.56976 27.1735 7.20208 26.1343 6.08126 24.8555L12.7488 14.1632V19.111C12.7488 21.4751 13.6708 22.2444 14.4456 22.4596C15.2205 22.6747 16.3828 22.5188 17.6417 20.5224L21.2998 14.5825C21.3975 14.4091 21.5105 14.2445 21.6356 14.0897V17.1025C21.6356 19.314 22.5268 21.0964 24.0623 21.9558C24.7711 22.3417 25.5712 22.5285 26.3776 22.4962C27.184 22.4639 27.9666 22.2138 28.6423 21.7725C30.416 20.6212 31.3686 18.605 31.2446 16.1772ZM27.1881 19.2888C26.9418 19.4584 26.6546 19.5592 26.3563 19.5806C26.0579 19.602 25.7593 19.5433 25.4913 19.4106C24.8767 19.0429 24.5068 18.2143 24.5068 17.0772V13.5947C24.5068 11.9374 23.8614 10.7378 22.7562 10.4327C20.8805 9.86637 19.4691 12.1833 18.9455 13.0437L15.6365 18.358V11.8145C15.6057 10.3098 15.1129 9.41857 14.191 9.14089C13.5764 8.9576 12.6544 9.05089 11.7643 10.4031L4.35922 22.262C3.37409 20.3848 2.85783 18.2972 2.85449 16.1772C2.85449 9.01797 8.59902 3.21087 15.6365 3.21087C22.6739 3.21087 28.4184 9.01797 28.4184 16.1772V16.2398C28.492 17.6205 28.0486 18.729 27.1892 19.28L27.1881 19.2888Z" fill="black"/>
</g>
<defs>
<clipPath id="clip0_1_95">
<rect width="31.8287" height="31.8287" fill="white" transform="translate(0.0283203 0.323242)"/>
</clipPath>
</defs>
</svg>
