<svg width="35" height="35" viewBox="0 0 35 35" fill="none" xmlns="http://www.w3.org/2000/svg">
<path d="M17.2324 -0.026321C7.65824 0.0186132 -0.0640172 7.81148 -0.0222926 17.3825C0.0226415 26.9534 7.81551 34.6789 17.3865 34.6372C26.9575 34.5922 34.6829 26.7994 34.6412 17.2284C34.5963 7.65421 26.8034 -0.0680456 17.2324 -0.026321ZM15.0371 16.4549C13.3264 16.4549 11.9366 15.0684 11.9366 13.3576C11.9366 11.6469 13.3232 10.2604 15.0371 10.2604C16.7478 10.2604 18.1343 11.6469 18.1343 13.3576C18.1343 15.0684 16.7478 16.4549 15.0371 16.4549ZM17.5085 19.8057L17.5245 19.7864L17.5405 19.7672C18.4264 20.3385 19.4342 20.5375 20.442 20.5696C21.453 20.5953 22.4801 20.5214 23.4943 20.316C24.5053 20.1074 25.5003 19.7961 26.46 19.3981C26.9992 19.1766 27.5352 18.9327 28.0455 18.647C28.0487 18.6438 28.0519 18.6438 28.0551 18.6406C28.3729 18.448 28.6842 18.249 28.9891 18.0404C29.0565 17.9923 29.1207 17.9441 29.1817 17.8928L29.1881 17.9024L29.2138 17.9345C28.4339 18.6438 27.5063 19.1702 26.5627 19.6356C25.6094 20.0849 24.6145 20.454 23.5874 20.7204C22.5635 20.9836 21.4948 21.1858 20.4131 21.0863C19.3475 20.9868 18.2242 20.6145 17.5085 19.8057ZM25.4618 16.4549C25.4618 16.0826 25.7603 15.7841 26.1294 15.7809C26.5017 15.7809 26.8002 16.0794 26.8034 16.4485C26.8034 16.8176 26.5049 17.1225 26.1358 17.1225C25.7667 17.1257 25.4618 16.8272 25.4618 16.4549ZM20.1531 33.0805C19.4823 28.3881 23.5778 23.7952 25.8887 21.4458C26.4118 20.913 27.2239 20.178 27.9781 19.3981C30.9759 16.5961 31.5728 13.2453 25.4361 11.5699C24.2743 11.2329 23.0675 10.7547 21.8478 10.2732C21.8093 10.1609 21.7644 10.055 21.7162 9.95548C21.575 9.71477 21.3311 9.43553 20.9588 9.12099C20.1596 8.42772 18.6639 8.44698 17.3704 8.75189C15.939 8.41488 14.53 8.29613 13.1723 8.6203C7.23779 10.254 6.28454 13.149 6.05345 16.6378C5.73891 20.4059 5.55596 23.2143 4.1277 26.4239C2.34638 23.853 1.29685 20.7397 1.28401 17.376C1.24549 8.52722 8.38682 1.31849 17.2388 1.27998C26.0909 1.24146 33.2964 8.38279 33.3381 17.2348C33.3702 25.14 27.6764 31.7357 20.1531 33.0805Z" fill="#231F20"/>
<path d="M17.2164 13.3866C17.2164 14.5902 16.2407 15.5659 15.0371 15.5659C13.8335 15.5659 12.8578 14.5902 12.8578 13.3866C12.8578 12.183 13.8335 11.2073 15.0371 11.2073C16.2407 11.2073 17.2164 12.183 17.2164 13.3866Z" fill="#231F20"/>
</svg>
